<svg width="248" height="162" viewBox="0 0 248 162" fill="none" xmlns="http://www.w3.org/2000/svg">
<path d="M200.08 33.0127C200.197 32.9997 200.495 32.9725 200.811 33.085L200.946 33.1416L201.075 33.2119C201.702 33.5824 202 34.2566 202 34.9551C202 35.3417 201.908 35.6994 201.722 36.0146C201.54 36.3217 201.299 36.5377 201.076 36.6924C200.774 36.9026 200.427 37.0183 200.045 36.9971C199.712 36.9786 199.432 36.8573 199.262 36.7783C199.078 36.6934 198.855 36.5836 198.609 36.3105C198.354 36.0266 197.835 35.3936 198.051 34.4932C198.194 33.8979 198.579 33.6182 198.69 33.5195C198.992 33.2529 199.356 33.1499 199.535 33.1074C199.643 33.0819 199.737 33.0659 199.806 33.0566C199.818 33.055 199.829 33.054 199.84 33.0527C199.843 33.0519 199.847 33.0506 199.851 33.0498C199.907 33.0375 199.987 33.023 200.08 33.0127Z" fill="#0D0D57" stroke="#0D0D57" stroke-width="2"/>
<mask id="path-2-outside-1_24_16" maskUnits="userSpaceOnUse" x="1" y="57" width="96" height="105" fill="black">
<rect fill="white" x="1" y="57" width="96" height="105"/>
<path d="M90.75 137.625C88.625 140.708 86.1667 143.5 83.375 146C80.5833 148.458 77.5417 150.562 74.25 152.312C71 154.062 67.5208 155.417 63.8125 156.375C60.1458 157.333 56.3333 157.812 52.375 157.812C48 157.812 43.7917 157.229 39.75 156.062C35.75 154.938 32 153.333 28.5 151.25C25 149.125 21.8125 146.604 18.9375 143.688C16.0625 140.729 13.6042 137.458 11.5625 133.875C9.52083 130.292 7.9375 126.438 6.8125 122.312C5.6875 118.188 5.125 113.896 5.125 109.438C5.125 104.979 5.6875 100.688 6.8125 96.5625C7.9375 92.4375 9.52083 88.5833 11.5625 85C13.6042 81.4167 16.0625 78.1667 18.9375 75.25C21.8125 72.2917 25 69.7708 28.5 67.6875C32 65.5625 35.7708 63.9375 39.8125 62.8125C43.8542 61.6458 48.0417 61.0625 52.375 61.0625C56.0833 61.0625 59.6667 61.4792 63.125 62.3125C66.5833 63.1458 69.875 64.3333 73 65.875C76.125 67.4167 79.0417 69.2917 81.75 71.5C84.4583 73.7083 86.8958 76.1667 89.0625 78.875L79.5 86.6875C76.25 82.6458 72.2917 79.4375 67.625 77.0625C63 74.6875 57.9167 73.5 52.375 73.5C47.5417 73.5 43.0208 74.4583 38.8125 76.375C34.6042 78.25 30.9167 80.8125 27.75 84.0625C24.5833 87.3125 22.0833 91.125 20.25 95.5C18.4583 99.8333 17.5625 104.479 17.5625 109.438C17.5625 114.396 18.4583 119.062 20.25 123.438C22.0833 127.812 24.5833 131.625 27.75 134.875C30.9167 138.125 34.6042 140.708 38.8125 142.625C43.0208 144.5 47.5417 145.438 52.375 145.438C55.2917 145.438 58.1042 145.083 60.8125 144.375C63.5208 143.667 66.0625 142.667 68.4375 141.375C70.8542 140.083 73.0833 138.521 75.125 136.688C77.2083 134.854 79.0417 132.812 80.625 130.562L90.75 137.625Z"/>
</mask>
<path d="M90.75 137.625C88.625 140.708 86.1667 143.5 83.375 146C80.5833 148.458 77.5417 150.562 74.25 152.312C71 154.062 67.5208 155.417 63.8125 156.375C60.1458 157.333 56.3333 157.812 52.375 157.812C48 157.812 43.7917 157.229 39.75 156.062C35.75 154.938 32 153.333 28.5 151.25C25 149.125 21.8125 146.604 18.9375 143.688C16.0625 140.729 13.6042 137.458 11.5625 133.875C9.52083 130.292 7.9375 126.438 6.8125 122.312C5.6875 118.188 5.125 113.896 5.125 109.438C5.125 104.979 5.6875 100.688 6.8125 96.5625C7.9375 92.4375 9.52083 88.5833 11.5625 85C13.6042 81.4167 16.0625 78.1667 18.9375 75.25C21.8125 72.2917 25 69.7708 28.5 67.6875C32 65.5625 35.7708 63.9375 39.8125 62.8125C43.8542 61.6458 48.0417 61.0625 52.375 61.0625C56.0833 61.0625 59.6667 61.4792 63.125 62.3125C66.5833 63.1458 69.875 64.3333 73 65.875C76.125 67.4167 79.0417 69.2917 81.75 71.5C84.4583 73.7083 86.8958 76.1667 89.0625 78.875L79.5 86.6875C76.25 82.6458 72.2917 79.4375 67.625 77.0625C63 74.6875 57.9167 73.5 52.375 73.5C47.5417 73.5 43.0208 74.4583 38.8125 76.375C34.6042 78.25 30.9167 80.8125 27.75 84.0625C24.5833 87.3125 22.0833 91.125 20.25 95.5C18.4583 99.8333 17.5625 104.479 17.5625 109.438C17.5625 114.396 18.4583 119.062 20.25 123.438C22.0833 127.812 24.5833 131.625 27.75 134.875C30.9167 138.125 34.6042 140.708 38.8125 142.625C43.0208 144.5 47.5417 145.438 52.375 145.438C55.2917 145.438 58.1042 145.083 60.8125 144.375C63.5208 143.667 66.0625 142.667 68.4375 141.375C70.8542 140.083 73.0833 138.521 75.125 136.688C77.2083 134.854 79.0417 132.812 80.625 130.562L90.75 137.625Z" fill="#0D0D57"/>
<path d="M90.75 137.625L94.0436 139.895L96.3007 136.62L93.0384 134.344L90.75 137.625ZM83.375 146L86.0185 149.002L86.031 148.991L86.0435 148.98L83.375 146ZM74.25 152.312L72.3723 148.781L72.3629 148.786L72.3536 148.791L74.25 152.312ZM63.8125 156.375L62.8117 152.502L62.801 152.505L63.8125 156.375ZM39.75 156.062L40.8593 152.219L40.8462 152.216L40.833 152.212L39.75 156.062ZM28.5 151.25L26.4241 154.669L26.439 154.678L26.4541 154.687L28.5 151.25ZM18.9375 143.688L16.069 146.475L16.0788 146.485L16.0888 146.496L18.9375 143.688ZM18.9375 75.25L21.7862 78.058L21.7962 78.0479L21.806 78.0377L18.9375 75.25ZM28.5 67.6875L30.5459 71.1247L30.561 71.1157L30.5759 71.1067L28.5 67.6875ZM39.8125 62.8125L40.8851 66.666L40.9035 66.6609L40.9218 66.6556L39.8125 62.8125ZM89.0625 78.875L91.5932 81.9726L94.6592 79.4678L92.186 76.3762L89.0625 78.875ZM79.5 86.6875L76.3828 89.1941L78.909 92.3356L82.0307 89.7851L79.5 86.6875ZM67.625 77.0625L65.7978 80.6208L65.8042 80.6241L65.8107 80.6274L67.625 77.0625ZM38.8125 76.375L40.4404 80.0288L40.4554 80.0221L40.4704 80.0152L38.8125 76.375ZM20.25 95.5L16.5608 93.9541L16.5571 93.9628L16.5535 93.9716L20.25 95.5ZM20.25 123.438L16.5484 124.953L16.5545 124.968L16.5608 124.983L20.25 123.438ZM38.8125 142.625L37.1546 146.265L37.1696 146.272L37.1846 146.279L38.8125 142.625ZM68.4375 141.375L66.552 137.847L66.5392 137.854L66.5264 137.861L68.4375 141.375ZM75.125 136.688L72.4825 133.685L72.4674 133.698L72.4525 133.711L75.125 136.688ZM80.625 130.562L82.9134 127.282L79.6462 125.003L77.3538 128.261L80.625 130.562ZM90.75 137.625L87.4564 135.355C85.5111 138.178 83.2627 140.731 80.7065 143.02L83.375 146L86.0435 148.98C89.0707 146.269 91.7389 143.239 94.0436 139.895L90.75 137.625ZM83.375 146L80.7315 142.998C78.1741 145.25 75.3895 147.177 72.3723 148.781L74.25 152.312L76.1277 155.844C79.6938 153.948 82.9926 151.667 86.0185 149.002L83.375 146ZM74.25 152.312L72.3536 148.791C69.3974 150.382 66.2202 151.621 62.8117 152.502L63.8125 156.375L64.8133 160.248C68.8215 159.212 72.6026 157.743 76.1464 155.834L74.25 152.312ZM63.8125 156.375L62.801 152.505C59.479 153.373 56.0072 153.812 52.375 153.812V157.812V161.812C56.6595 161.812 60.8127 161.293 64.824 160.245L63.8125 156.375ZM52.375 157.812V153.812C48.3602 153.812 44.5262 153.278 40.8593 152.219L39.75 156.062L38.6407 159.906C43.0571 161.18 47.6398 161.812 52.375 161.812V157.812ZM39.75 156.062L40.833 152.212C37.1638 151.18 33.7384 149.713 30.5459 147.813L28.5 151.25L26.4541 154.687C30.2616 156.954 34.3362 158.695 38.667 159.913L39.75 156.062ZM28.5 151.25L30.5759 147.831C27.3578 145.877 24.4298 143.561 21.7862 140.879L18.9375 143.688L16.0888 146.496C19.1952 149.647 22.6422 152.373 26.4241 154.669L28.5 151.25ZM18.9375 143.688L21.806 140.9C19.1666 138.184 16.9122 135.184 15.038 131.895L11.5625 133.875L8.08704 135.855C10.2961 139.732 12.9584 143.275 16.069 146.475L18.9375 143.688ZM11.5625 133.875L15.038 131.895C13.1686 128.614 11.7114 125.073 10.6716 121.26L6.8125 122.312L2.95344 123.365C4.16359 127.802 5.87304 131.969 8.08704 135.855L11.5625 133.875ZM6.8125 122.312L10.6716 121.26C9.64402 117.492 9.125 113.556 9.125 109.438H5.125H1.125C1.125 114.236 1.73097 118.883 2.95344 123.365L6.8125 122.312ZM5.125 109.438H9.125C9.125 105.319 9.64402 101.383 10.6716 97.615L6.8125 96.5625L2.95344 95.51C1.73097 99.9924 1.125 104.639 1.125 109.438H5.125ZM6.8125 96.5625L10.6716 97.615C11.7114 93.8022 13.1686 90.2611 15.038 86.9802L11.5625 85L8.08704 83.0198C5.87304 86.9056 4.16359 91.0728 2.95344 95.51L6.8125 96.5625ZM11.5625 85L15.038 86.9802C16.9088 83.6967 19.1569 80.7254 21.7862 78.058L18.9375 75.25L16.0888 72.442C12.9681 75.6079 10.2996 79.1366 8.08704 83.0198L11.5625 85ZM18.9375 75.25L21.806 78.0377C24.4397 75.3278 27.3513 73.0262 30.5459 71.1247L28.5 67.6875L26.4541 64.2503C22.6487 66.5154 19.1853 69.2556 16.069 72.4623L18.9375 75.25ZM28.5 67.6875L30.5759 71.1067C33.7553 69.1763 37.1874 67.6953 40.8851 66.666L39.8125 62.8125L38.7399 58.959C34.3542 60.1797 30.2447 61.9487 26.4241 64.2684L28.5 67.6875ZM39.8125 62.8125L40.9218 66.6556C44.5921 65.5961 48.4056 65.0625 52.375 65.0625V61.0625V57.0625C47.6777 57.0625 43.1162 57.6955 38.7032 58.9694L39.8125 62.8125ZM52.375 61.0625V65.0625C55.7811 65.0625 59.0492 65.4449 62.188 66.2012L63.125 62.3125L64.062 58.4238C60.2841 57.5135 56.3856 57.0625 52.375 57.0625V61.0625ZM63.125 62.3125L62.188 66.2012C65.3645 66.9666 68.3764 68.0543 71.2303 69.4622L73 65.875L74.7697 62.2878C71.3736 60.6124 67.8022 59.325 64.062 58.4238L63.125 62.3125ZM73 65.875L71.2303 69.4622C74.0843 70.8702 76.7468 72.5816 79.2222 74.6001L81.75 71.5L84.2778 68.3999C81.3366 66.0017 78.1657 63.9631 74.7697 62.2878L73 65.875ZM81.75 71.5L79.2222 74.6001C81.713 76.631 83.9504 78.8881 85.939 81.3738L89.0625 78.875L92.186 76.3762C89.8412 73.4453 87.2037 70.7857 84.2778 68.3999L81.75 71.5ZM89.0625 78.875L86.5318 75.7774L76.9693 83.5899L79.5 86.6875L82.0307 89.7851L91.5932 81.9726L89.0625 78.875ZM79.5 86.6875L82.6172 84.1809C79.0091 79.6939 74.6052 76.1267 69.4393 73.4976L67.625 77.0625L65.8107 80.6274C69.9781 82.7483 73.4909 85.5977 76.3828 89.1941L79.5 86.6875ZM67.625 77.0625L69.4522 73.5042C64.2249 70.8199 58.5092 69.5 52.375 69.5V73.5V77.5C57.3241 77.5 61.7751 78.5551 65.7978 80.6208L67.625 77.0625ZM52.375 73.5V69.5C46.9961 69.5 41.907 70.5703 37.1546 72.7348L38.8125 76.375L40.4704 80.0152C44.1346 78.3464 48.0872 77.5 52.375 77.5V73.5ZM38.8125 76.375L37.1846 72.7212C32.5202 74.7994 28.4112 77.6521 24.8851 81.271L27.75 84.0625L30.6149 86.854C33.4221 83.9729 36.6881 81.7006 40.4404 80.0288L38.8125 76.375ZM27.75 84.0625L24.8851 81.271C21.3521 84.897 18.5793 89.1372 16.5608 93.9541L20.25 95.5L23.9392 97.0459C25.5873 93.1128 27.8146 89.728 30.6149 86.854L27.75 84.0625ZM20.25 95.5L16.5535 93.9716C14.5501 98.8171 13.5625 103.985 13.5625 109.438H17.5625H21.5625C21.5625 104.973 22.3666 100.85 23.9465 97.0284L20.25 95.5ZM17.5625 109.438H13.5625C13.5625 114.89 14.5501 120.074 16.5484 124.953L20.25 123.438L23.9516 121.922C22.3665 118.051 21.5625 113.902 21.5625 109.438H17.5625ZM20.25 123.438L16.5608 124.983C18.5793 129.8 21.3521 134.041 24.8851 137.666L27.75 134.875L30.6149 132.084C27.8146 129.209 25.5873 125.825 23.9392 121.892L20.25 123.438ZM27.75 134.875L24.8851 137.666C28.4046 141.279 32.5036 144.147 37.1546 146.265L38.8125 142.625L40.4704 138.985C36.7048 137.27 33.4287 134.971 30.6149 132.084L27.75 134.875ZM38.8125 142.625L37.1846 146.279C41.9304 148.393 47.0089 149.438 52.375 149.438V145.438V141.438C48.0745 141.438 44.1113 140.607 40.4404 138.971L38.8125 142.625ZM52.375 145.438V149.438C55.6189 149.438 58.7723 149.043 61.8246 148.245L60.8125 144.375L59.8004 140.505C57.4361 141.124 54.9645 141.438 52.375 141.438V145.438ZM60.8125 144.375L61.8246 148.245C64.8348 147.458 67.6795 146.341 70.3486 144.889L68.4375 141.375L66.5264 137.861C64.4455 138.993 62.2069 139.876 59.8004 140.505L60.8125 144.375ZM68.4375 141.375L70.323 144.903C73.0236 143.459 75.517 141.712 77.7975 139.664L75.125 136.688L72.4525 133.711C70.6497 135.33 68.6847 136.707 66.552 137.847L68.4375 141.375ZM75.125 136.688L77.7675 139.69C80.0852 137.651 82.1301 135.374 83.8962 132.864L80.625 130.562L77.3538 128.261C75.9533 130.251 74.3315 132.058 72.4825 133.685L75.125 136.688ZM80.625 130.562L78.3366 133.843L88.4616 140.906L90.75 137.625L93.0384 134.344L82.9134 127.282L80.625 130.562Z" fill="white" mask="url(#path-2-outside-1_24_16)"/>
<mask id="path-4-outside-2_24_16" maskUnits="userSpaceOnUse" x="67" y="56" width="96" height="105" fill="black">
<rect fill="white" x="67" y="56" width="96" height="105"/>
<path d="M156.75 136.625C154.625 139.708 152.167 142.5 149.375 145C146.583 147.458 143.542 149.562 140.25 151.312C137 153.062 133.521 154.417 129.812 155.375C126.146 156.333 122.333 156.812 118.375 156.812C114 156.812 109.792 156.229 105.75 155.062C101.75 153.938 98 152.333 94.5 150.25C91 148.125 87.8125 145.604 84.9375 142.688C82.0625 139.729 79.6042 136.458 77.5625 132.875C75.5208 129.292 73.9375 125.438 72.8125 121.312C71.6875 117.188 71.125 112.896 71.125 108.438C71.125 103.979 71.6875 99.6875 72.8125 95.5625C73.9375 91.4375 75.5208 87.5833 77.5625 84C79.6042 80.4167 82.0625 77.1667 84.9375 74.25C87.8125 71.2917 91 68.7708 94.5 66.6875C98 64.5625 101.771 62.9375 105.812 61.8125C109.854 60.6458 114.042 60.0625 118.375 60.0625C122.083 60.0625 125.667 60.4792 129.125 61.3125C132.583 62.1458 135.875 63.3333 139 64.875C142.125 66.4167 145.042 68.2917 147.75 70.5C150.458 72.7083 152.896 75.1667 155.062 77.875L145.5 85.6875C142.25 81.6458 138.292 78.4375 133.625 76.0625C129 73.6875 123.917 72.5 118.375 72.5C113.542 72.5 109.021 73.4583 104.812 75.375C100.604 77.25 96.9167 79.8125 93.75 83.0625C90.5833 86.3125 88.0833 90.125 86.25 94.5C84.4583 98.8333 83.5625 103.479 83.5625 108.438C83.5625 113.396 84.4583 118.062 86.25 122.438C88.0833 126.812 90.5833 130.625 93.75 133.875C96.9167 137.125 100.604 139.708 104.812 141.625C109.021 143.5 113.542 144.438 118.375 144.438C121.292 144.438 124.104 144.083 126.812 143.375C129.521 142.667 132.062 141.667 134.438 140.375C136.854 139.083 139.083 137.521 141.125 135.688C143.208 133.854 145.042 131.812 146.625 129.562L156.75 136.625Z"/>
</mask>
<path d="M156.75 136.625C154.625 139.708 152.167 142.5 149.375 145C146.583 147.458 143.542 149.562 140.25 151.312C137 153.062 133.521 154.417 129.812 155.375C126.146 156.333 122.333 156.812 118.375 156.812C114 156.812 109.792 156.229 105.75 155.062C101.75 153.938 98 152.333 94.5 150.25C91 148.125 87.8125 145.604 84.9375 142.688C82.0625 139.729 79.6042 136.458 77.5625 132.875C75.5208 129.292 73.9375 125.438 72.8125 121.312C71.6875 117.188 71.125 112.896 71.125 108.438C71.125 103.979 71.6875 99.6875 72.8125 95.5625C73.9375 91.4375 75.5208 87.5833 77.5625 84C79.6042 80.4167 82.0625 77.1667 84.9375 74.25C87.8125 71.2917 91 68.7708 94.5 66.6875C98 64.5625 101.771 62.9375 105.812 61.8125C109.854 60.6458 114.042 60.0625 118.375 60.0625C122.083 60.0625 125.667 60.4792 129.125 61.3125C132.583 62.1458 135.875 63.3333 139 64.875C142.125 66.4167 145.042 68.2917 147.75 70.5C150.458 72.7083 152.896 75.1667 155.062 77.875L145.5 85.6875C142.25 81.6458 138.292 78.4375 133.625 76.0625C129 73.6875 123.917 72.5 118.375 72.5C113.542 72.5 109.021 73.4583 104.812 75.375C100.604 77.25 96.9167 79.8125 93.75 83.0625C90.5833 86.3125 88.0833 90.125 86.25 94.5C84.4583 98.8333 83.5625 103.479 83.5625 108.438C83.5625 113.396 84.4583 118.062 86.25 122.438C88.0833 126.812 90.5833 130.625 93.75 133.875C96.9167 137.125 100.604 139.708 104.812 141.625C109.021 143.5 113.542 144.438 118.375 144.438C121.292 144.438 124.104 144.083 126.812 143.375C129.521 142.667 132.062 141.667 134.438 140.375C136.854 139.083 139.083 137.521 141.125 135.688C143.208 133.854 145.042 131.812 146.625 129.562L156.75 136.625Z" fill="#0D0D57"/>
<path d="M156.75 136.625L160.044 138.895L162.301 135.62L159.038 133.344L156.75 136.625ZM149.375 145L152.019 148.002L152.031 147.991L152.043 147.98L149.375 145ZM140.25 151.312L138.372 147.781L138.363 147.786L138.354 147.791L140.25 151.312ZM129.812 155.375L128.812 151.502L128.801 151.505L129.812 155.375ZM105.75 155.062L106.859 151.219L106.846 151.216L106.833 151.212L105.75 155.062ZM94.5 150.25L92.4241 153.669L92.439 153.678L92.4541 153.687L94.5 150.25ZM84.9375 142.688L82.069 145.475L82.0788 145.485L82.0888 145.496L84.9375 142.688ZM84.9375 74.25L87.7862 77.058L87.7962 77.0479L87.806 77.0377L84.9375 74.25ZM94.5 66.6875L96.5459 70.1247L96.561 70.1157L96.5759 70.1066L94.5 66.6875ZM105.812 61.8125L106.885 65.666L106.904 65.6609L106.922 65.6556L105.812 61.8125ZM155.062 77.875L157.593 80.9726L160.659 78.4678L158.186 75.3762L155.062 77.875ZM145.5 85.6875L142.383 88.1941L144.909 91.3356L148.031 88.7851L145.5 85.6875ZM133.625 76.0625L131.798 79.6208L131.804 79.6241L131.811 79.6274L133.625 76.0625ZM104.812 75.375L106.44 79.0288L106.455 79.0221L106.47 79.0152L104.812 75.375ZM86.25 94.5L82.5608 92.9541L82.5571 92.9628L82.5535 92.9716L86.25 94.5ZM86.25 122.438L82.5484 123.953L82.5545 123.968L82.5608 123.983L86.25 122.438ZM104.812 141.625L103.155 145.265L103.17 145.272L103.185 145.279L104.812 141.625ZM134.438 140.375L132.552 136.847L132.539 136.854L132.526 136.861L134.438 140.375ZM141.125 135.688L138.482 132.685L138.467 132.698L138.452 132.711L141.125 135.688ZM146.625 129.562L148.913 126.282L145.646 124.003L143.354 127.261L146.625 129.562ZM156.75 136.625L153.456 134.355C151.511 137.178 149.263 139.731 146.707 142.02L149.375 145L152.043 147.98C155.071 145.269 157.739 142.239 160.044 138.895L156.75 136.625ZM149.375 145L146.731 141.998C144.174 144.25 141.39 146.177 138.372 147.781L140.25 151.312L142.128 154.844C145.694 152.948 148.993 150.667 152.019 148.002L149.375 145ZM140.25 151.312L138.354 147.791C135.397 149.382 132.22 150.621 128.812 151.502L129.812 155.375L130.813 159.248C134.821 158.212 138.603 156.743 142.146 154.834L140.25 151.312ZM129.812 155.375L128.801 151.505C125.479 152.373 122.007 152.812 118.375 152.812V156.812V160.812C122.659 160.812 126.813 160.293 130.824 159.245L129.812 155.375ZM118.375 156.812V152.812C114.36 152.812 110.526 152.278 106.859 151.219L105.75 155.062L104.641 158.906C109.057 160.18 113.64 160.812 118.375 160.812V156.812ZM105.75 155.062L106.833 151.212C103.164 150.18 99.7384 148.713 96.5459 146.813L94.5 150.25L92.4541 153.687C96.2616 155.954 100.336 157.695 104.667 158.913L105.75 155.062ZM94.5 150.25L96.5759 146.831C93.3578 144.877 90.4298 142.561 87.7862 139.879L84.9375 142.688L82.0888 145.496C85.1952 148.647 88.6422 151.373 92.4241 153.669L94.5 150.25ZM84.9375 142.688L87.806 139.9C85.1666 137.184 82.9122 134.184 81.038 130.895L77.5625 132.875L74.087 134.855C76.2961 138.732 78.9584 142.275 82.069 145.475L84.9375 142.688ZM77.5625 132.875L81.038 130.895C79.1686 127.614 77.7114 124.073 76.6716 120.26L72.8125 121.312L68.9534 122.365C70.1636 126.802 71.873 130.969 74.087 134.855L77.5625 132.875ZM72.8125 121.312L76.6716 120.26C75.644 116.492 75.125 112.556 75.125 108.438H71.125H67.125C67.125 113.236 67.731 117.883 68.9534 122.365L72.8125 121.312ZM71.125 108.438H75.125C75.125 104.319 75.644 100.383 76.6716 96.615L72.8125 95.5625L68.9534 94.51C67.731 98.9924 67.125 103.639 67.125 108.438H71.125ZM72.8125 95.5625L76.6716 96.615C77.7114 92.8022 79.1686 89.2611 81.038 85.9802L77.5625 84L74.087 82.0198C71.873 85.9056 70.1636 90.0728 68.9534 94.51L72.8125 95.5625ZM77.5625 84L81.038 85.9802C82.9088 82.6967 85.1569 79.7254 87.7862 77.058L84.9375 74.25L82.0888 71.442C78.9681 74.6079 76.2996 78.1366 74.087 82.0198L77.5625 84ZM84.9375 74.25L87.806 77.0377C90.4397 74.3278 93.3513 72.0262 96.5459 70.1247L94.5 66.6875L92.4541 63.2503C88.6487 65.5154 85.1853 68.2556 82.069 71.4623L84.9375 74.25ZM94.5 66.6875L96.5759 70.1066C99.7553 68.1763 103.187 66.6953 106.885 65.666L105.812 61.8125L104.74 57.959C100.354 59.1797 96.2447 60.9487 92.4241 63.2683L94.5 66.6875ZM105.812 61.8125L106.922 65.6556C110.592 64.5961 114.406 64.0625 118.375 64.0625V60.0625V56.0625C113.678 56.0625 109.116 56.6955 104.703 57.9694L105.812 61.8125ZM118.375 60.0625V64.0625C121.781 64.0625 125.049 64.4449 128.188 65.2012L129.125 61.3125L130.062 57.4238C126.284 56.5135 122.386 56.0625 118.375 56.0625V60.0625ZM129.125 61.3125L128.188 65.2012C131.364 65.9666 134.376 67.0543 137.23 68.4622L139 64.875L140.77 61.2878C137.374 59.6124 133.802 58.325 130.062 57.4238L129.125 61.3125ZM139 64.875L137.23 68.4622C140.084 69.8702 142.747 71.5816 145.222 73.6001L147.75 70.5L150.278 67.3999C147.337 65.0017 144.166 62.9631 140.77 61.2878L139 64.875ZM147.75 70.5L145.222 73.6001C147.713 75.631 149.95 77.8881 151.939 80.3738L155.062 77.875L158.186 75.3762C155.841 72.4453 153.204 69.7857 150.278 67.3999L147.75 70.5ZM155.062 77.875L152.532 74.7774L142.969 82.5899L145.5 85.6875L148.031 88.7851L157.593 80.9726L155.062 77.875ZM145.5 85.6875L148.617 83.1809C145.009 78.6939 140.605 75.1267 135.439 72.4976L133.625 76.0625L131.811 79.6274C135.978 81.7483 139.491 84.5977 142.383 88.1941L145.5 85.6875ZM133.625 76.0625L135.452 72.5042C130.225 69.8199 124.509 68.5 118.375 68.5V72.5V76.5C123.324 76.5 127.775 77.5551 131.798 79.6208L133.625 76.0625ZM118.375 72.5V68.5C112.996 68.5 107.907 69.5703 103.155 71.7348L104.812 75.375L106.47 79.0152C110.135 77.3464 114.087 76.5 118.375 76.5V72.5ZM104.812 75.375L103.185 71.7212C98.5202 73.7994 94.4112 76.6521 90.8851 80.271L93.75 83.0625L96.6149 85.854C99.4221 82.9729 102.688 80.7006 106.44 79.0288L104.812 75.375ZM93.75 83.0625L90.8851 80.271C87.3521 83.897 84.5793 88.1372 82.5608 92.9541L86.25 94.5L89.9392 96.0459C91.5873 92.1128 93.8146 88.728 96.6149 85.854L93.75 83.0625ZM86.25 94.5L82.5535 92.9716C80.5501 97.8171 79.5625 102.985 79.5625 108.438H83.5625H87.5625C87.5625 103.973 88.3666 99.8496 89.9465 96.0284L86.25 94.5ZM83.5625 108.438H79.5625C79.5625 113.89 80.5501 119.074 82.5484 123.953L86.25 122.438L89.9516 120.922C88.3665 117.051 87.5625 112.902 87.5625 108.438H83.5625ZM86.25 122.438L82.5608 123.983C84.5793 128.8 87.3521 133.041 90.8851 136.666L93.75 133.875L96.6149 131.084C93.8146 128.209 91.5873 124.825 89.9392 120.892L86.25 122.438ZM93.75 133.875L90.8851 136.666C94.4046 140.279 98.5036 143.147 103.155 145.265L104.812 141.625L106.47 137.985C102.705 136.27 99.4287 133.971 96.6149 131.084L93.75 133.875ZM104.812 141.625L103.185 145.279C107.93 147.393 113.009 148.438 118.375 148.438V144.438V140.438C114.074 140.438 110.111 139.607 106.44 137.971L104.812 141.625ZM118.375 144.438V148.438C121.619 148.438 124.772 148.043 127.825 147.245L126.812 143.375L125.8 139.505C123.436 140.124 120.964 140.438 118.375 140.438V144.438ZM126.812 143.375L127.825 147.245C130.835 146.458 133.679 145.341 136.349 143.889L134.438 140.375L132.526 136.861C130.446 137.993 128.207 138.876 125.8 139.505L126.812 143.375ZM134.438 140.375L136.323 143.903C139.024 142.459 141.517 140.712 143.798 138.664L141.125 135.688L138.452 132.711C136.65 134.33 134.685 135.707 132.552 136.847L134.438 140.375ZM141.125 135.688L143.768 138.69C146.085 136.651 148.13 134.374 149.896 131.864L146.625 129.562L143.354 127.261C141.953 129.251 140.331 131.058 138.482 132.685L141.125 135.688ZM146.625 129.562L144.337 132.843L154.462 139.906L156.75 136.625L159.038 133.344L148.913 126.282L146.625 129.562Z" fill="white" mask="url(#path-4-outside-2_24_16)"/>
<mask id="path-6-outside-3_24_16" maskUnits="userSpaceOnUse" x="30" y="8" width="96" height="105" fill="black">
<rect fill="white" x="30" y="8" width="96" height="105"/>
<path d="M119.75 32.375C117.625 29.2917 115.167 26.5 112.375 24C109.583 21.5417 106.542 19.4375 103.25 17.6875C100 15.9375 96.5208 14.5833 92.8125 13.625C89.1458 12.6667 85.3333 12.1875 81.375 12.1875C77 12.1875 72.7917 12.7708 68.75 13.9375C64.75 15.0625 61 16.6667 57.5 18.75C54 20.875 50.8125 23.3958 47.9375 26.3125C45.0625 29.2708 42.6042 32.5417 40.5625 36.125C38.5208 39.7083 36.9375 43.5625 35.8125 47.6875C34.6875 51.8125 34.125 56.1042 34.125 60.5625C34.125 65.0208 34.6875 69.3125 35.8125 73.4375C36.9375 77.5625 38.5208 81.4167 40.5625 85C42.6042 88.5833 45.0625 91.8333 47.9375 94.75C50.8125 97.7083 54 100.229 57.5 102.312C61 104.438 64.7708 106.062 68.8125 107.188C72.8542 108.354 77.0417 108.938 81.375 108.938C85.0833 108.938 88.6667 108.521 92.125 107.688C95.5833 106.854 98.875 105.667 102 104.125C105.125 102.583 108.042 100.708 110.75 98.5C113.458 96.2917 115.896 93.8333 118.062 91.125L108.5 83.3125C105.25 87.3542 101.292 90.5625 96.625 92.9375C92 95.3125 86.9167 96.5 81.375 96.5C76.5417 96.5 72.0208 95.5417 67.8125 93.625C63.6042 91.75 59.9167 89.1875 56.75 85.9375C53.5833 82.6875 51.0833 78.875 49.25 74.5C47.4583 70.1667 46.5625 65.5208 46.5625 60.5625C46.5625 55.6042 47.4583 50.9375 49.25 46.5625C51.0833 42.1875 53.5833 38.375 56.75 35.125C59.9167 31.875 63.6042 29.2917 67.8125 27.375C72.0208 25.5 76.5417 24.5625 81.375 24.5625C84.2917 24.5625 87.1042 24.9167 89.8125 25.625C92.5208 26.3333 95.0625 27.3333 97.4375 28.625C99.8542 29.9167 102.083 31.4792 104.125 33.3125C106.208 35.1458 108.042 37.1875 109.625 39.4375L119.75 32.375Z"/>
</mask>
<path d="M119.75 32.375C117.625 29.2917 115.167 26.5 112.375 24C109.583 21.5417 106.542 19.4375 103.25 17.6875C100 15.9375 96.5208 14.5833 92.8125 13.625C89.1458 12.6667 85.3333 12.1875 81.375 12.1875C77 12.1875 72.7917 12.7708 68.75 13.9375C64.75 15.0625 61 16.6667 57.5 18.75C54 20.875 50.8125 23.3958 47.9375 26.3125C45.0625 29.2708 42.6042 32.5417 40.5625 36.125C38.5208 39.7083 36.9375 43.5625 35.8125 47.6875C34.6875 51.8125 34.125 56.1042 34.125 60.5625C34.125 65.0208 34.6875 69.3125 35.8125 73.4375C36.9375 77.5625 38.5208 81.4167 40.5625 85C42.6042 88.5833 45.0625 91.8333 47.9375 94.75C50.8125 97.7083 54 100.229 57.5 102.312C61 104.438 64.7708 106.062 68.8125 107.188C72.8542 108.354 77.0417 108.938 81.375 108.938C85.0833 108.938 88.6667 108.521 92.125 107.688C95.5833 106.854 98.875 105.667 102 104.125C105.125 102.583 108.042 100.708 110.75 98.5C113.458 96.2917 115.896 93.8333 118.062 91.125L108.5 83.3125C105.25 87.3542 101.292 90.5625 96.625 92.9375C92 95.3125 86.9167 96.5 81.375 96.5C76.5417 96.5 72.0208 95.5417 67.8125 93.625C63.6042 91.75 59.9167 89.1875 56.75 85.9375C53.5833 82.6875 51.0833 78.875 49.25 74.5C47.4583 70.1667 46.5625 65.5208 46.5625 60.5625C46.5625 55.6042 47.4583 50.9375 49.25 46.5625C51.0833 42.1875 53.5833 38.375 56.75 35.125C59.9167 31.875 63.6042 29.2917 67.8125 27.375C72.0208 25.5 76.5417 24.5625 81.375 24.5625C84.2917 24.5625 87.1042 24.9167 89.8125 25.625C92.5208 26.3333 95.0625 27.3333 97.4375 28.625C99.8542 29.9167 102.083 31.4792 104.125 33.3125C106.208 35.1458 108.042 37.1875 109.625 39.4375L119.75 32.375Z" fill="#0D0D57"/>
<path d="M119.75 32.375L123.044 30.1051L125.301 33.3802L122.038 35.6557L119.75 32.375ZM112.375 24L115.019 20.998L115.031 21.0091L115.043 21.0202L112.375 24ZM103.25 17.6875L101.372 21.2194L101.363 21.2144L101.354 21.2094L103.25 17.6875ZM92.8125 13.625L91.8117 17.4978L91.801 17.495L92.8125 13.625ZM68.75 13.9375L69.8593 17.7806L69.8462 17.7844L69.833 17.7881L68.75 13.9375ZM57.5 18.75L55.4241 15.3308L55.439 15.3218L55.4541 15.3128L57.5 18.75ZM47.9375 26.3125L45.069 23.5248L45.0788 23.5146L45.0888 23.5045L47.9375 26.3125ZM47.9375 94.75L50.7862 91.942L50.7962 91.9521L50.806 91.9623L47.9375 94.75ZM57.5 102.312L59.5459 98.8753L59.561 98.8843L59.5759 98.8934L57.5 102.312ZM68.8125 107.188L69.8851 103.334L69.9035 103.339L69.9218 103.344L68.8125 107.188ZM118.062 91.125L120.593 88.0274L123.659 90.5322L121.186 93.6238L118.062 91.125ZM108.5 83.3125L105.383 80.8059L107.909 77.6644L111.031 80.2149L108.5 83.3125ZM96.625 92.9375L94.7978 89.3792L94.8042 89.3759L94.8107 89.3726L96.625 92.9375ZM67.8125 93.625L69.4404 89.9712L69.4554 89.9779L69.4704 89.9848L67.8125 93.625ZM49.25 74.5L45.5608 76.0459L45.5571 76.0372L45.5535 76.0284L49.25 74.5ZM49.25 46.5625L45.5484 45.0466L45.5545 45.0315L45.5608 45.0166L49.25 46.5625ZM67.8125 27.375L66.1546 23.7348L66.1696 23.7279L66.1846 23.7212L67.8125 27.375ZM97.4375 28.625L95.552 32.1527L95.5392 32.1459L95.5264 32.1389L97.4375 28.625ZM104.125 33.3125L101.482 36.3154L101.467 36.3021L101.452 36.2887L104.125 33.3125ZM109.625 39.4375L111.913 42.7182L108.646 44.9972L106.354 41.7395L109.625 39.4375ZM119.75 32.375L116.456 34.6449C114.511 31.8223 112.263 29.2689 109.707 26.9798L112.375 24L115.043 21.0202C118.071 23.7311 120.739 26.7611 123.044 30.1051L119.75 32.375ZM112.375 24L109.731 27.002C107.174 24.7499 104.39 22.8235 101.372 21.2194L103.25 17.6875L105.128 14.1556C108.694 16.0515 111.993 18.3334 115.019 20.998L112.375 24ZM103.25 17.6875L101.354 21.2094C98.3974 19.6176 95.2202 18.3786 91.8117 17.4978L92.8125 13.625L93.8133 9.75223C97.8215 10.788 101.603 12.2574 105.146 14.1656L103.25 17.6875ZM92.8125 13.625L91.801 17.495C88.479 16.6267 85.0072 16.1875 81.375 16.1875V12.1875V8.1875C85.6595 8.1875 89.8127 8.7066 93.824 9.755L92.8125 13.625ZM81.375 12.1875V16.1875C77.3602 16.1875 73.5262 16.7221 69.8593 17.7806L68.75 13.9375L67.6407 10.0944C72.0571 8.81955 76.6398 8.1875 81.375 8.1875V12.1875ZM68.75 13.9375L69.833 17.7881C66.1638 18.82 62.7384 20.2869 59.5459 22.1872L57.5 18.75L55.4541 15.3128C59.2616 13.0464 63.3362 11.305 67.667 10.0869L68.75 13.9375ZM57.5 18.75L59.5759 22.1692C56.3578 24.123 53.4298 26.4386 50.7862 29.1205L47.9375 26.3125L45.0888 23.5045C48.1952 20.3531 51.6422 17.627 55.4241 15.3308L57.5 18.75ZM47.9375 26.3125L50.806 29.1002C48.1666 31.8162 45.9122 34.8157 44.038 38.1052L40.5625 36.125L37.087 34.1448C39.2961 30.2676 41.9584 26.7255 45.069 23.5248L47.9375 26.3125ZM40.5625 36.125L44.038 38.1052C42.1686 41.3861 40.7114 44.9272 39.6716 48.74L35.8125 47.6875L31.9534 46.635C33.1636 42.1978 34.873 38.0306 37.087 34.1448L40.5625 36.125ZM35.8125 47.6875L39.6716 48.74C38.644 52.5076 38.125 56.4445 38.125 60.5625H34.125H30.125C30.125 55.7639 30.731 51.1174 31.9534 46.635L35.8125 47.6875ZM34.125 60.5625H38.125C38.125 64.6805 38.644 68.6174 39.6716 72.385L35.8125 73.4375L31.9534 74.49C30.731 70.0076 30.125 65.3611 30.125 60.5625H34.125ZM35.8125 73.4375L39.6716 72.385C40.7114 76.1978 42.1686 79.7389 44.038 83.0198L40.5625 85L37.087 86.9802C34.873 83.0944 33.1636 78.9272 31.9534 74.49L35.8125 73.4375ZM40.5625 85L44.038 83.0198C45.9088 86.3033 48.1569 89.2746 50.7862 91.942L47.9375 94.75L45.0888 97.558C41.9681 94.3921 39.2996 90.8634 37.087 86.9802L40.5625 85ZM47.9375 94.75L50.806 91.9623C53.4397 94.6722 56.3513 96.9738 59.5459 98.8753L57.5 102.312L55.4541 105.75C51.6487 103.485 48.1853 100.744 45.069 97.5377L47.9375 94.75ZM57.5 102.312L59.5759 98.8934C62.7553 100.824 66.1874 102.305 69.8851 103.334L68.8125 107.188L67.7399 111.041C63.3542 109.82 59.2447 108.051 55.4241 105.732L57.5 102.312ZM68.8125 107.188L69.9218 103.344C73.5921 104.404 77.4056 104.938 81.375 104.938V108.938V112.938C76.6777 112.938 72.1162 112.304 67.7032 111.031L68.8125 107.188ZM81.375 108.938V104.938C84.7811 104.938 88.0492 104.555 91.188 103.799L92.125 107.688L93.062 111.576C89.2841 112.487 85.3856 112.938 81.375 112.938V108.938ZM92.125 107.688L91.188 103.799C94.3645 103.033 97.3764 101.946 100.23 100.538L102 104.125L103.77 107.712C100.374 109.388 96.8022 110.675 93.062 111.576L92.125 107.688ZM102 104.125L100.23 100.538C103.084 99.1298 105.747 97.4184 108.222 95.3999L110.75 98.5L113.278 101.6C110.337 103.998 107.166 106.037 103.77 107.712L102 104.125ZM110.75 98.5L108.222 95.3999C110.713 93.369 112.95 91.1119 114.939 88.6262L118.062 91.125L121.186 93.6238C118.841 96.5547 116.204 99.2143 113.278 101.6L110.75 98.5ZM118.062 91.125L115.532 94.2226L105.969 86.4101L108.5 83.3125L111.031 80.2149L120.593 88.0274L118.062 91.125ZM108.5 83.3125L111.617 85.8191C108.009 90.3061 103.605 93.8733 98.4393 96.5024L96.625 92.9375L94.8107 89.3726C98.9781 87.2517 102.491 84.4023 105.383 80.8059L108.5 83.3125ZM96.625 92.9375L98.4522 96.4958C93.2249 99.1801 87.5092 100.5 81.375 100.5V96.5V92.5C86.3241 92.5 90.7751 91.4449 94.7978 89.3792L96.625 92.9375ZM81.375 96.5V100.5C75.9961 100.5 70.907 99.4297 66.1546 97.2652L67.8125 93.625L69.4704 89.9848C73.1346 91.6536 77.0872 92.5 81.375 92.5V96.5ZM67.8125 93.625L66.1846 97.2788C61.5202 95.2006 57.4112 92.3479 53.8851 88.729L56.75 85.9375L59.6149 83.146C62.4221 86.0271 65.6881 88.2994 69.4404 89.9712L67.8125 93.625ZM56.75 85.9375L53.8851 88.729C50.3521 85.103 47.5793 80.8628 45.5608 76.0459L49.25 74.5L52.9392 72.9541C54.5873 76.8872 56.8146 80.272 59.6149 83.146L56.75 85.9375ZM49.25 74.5L45.5535 76.0284C43.5501 71.1829 42.5625 66.0147 42.5625 60.5625H46.5625H50.5625C50.5625 65.027 51.3666 69.1504 52.9465 72.9716L49.25 74.5ZM46.5625 60.5625H42.5625C42.5625 55.1101 43.5501 49.926 45.5484 45.0466L49.25 46.5625L52.9516 48.0784C51.3665 51.949 50.5625 56.0983 50.5625 60.5625H46.5625ZM49.25 46.5625L45.5608 45.0166C47.5793 40.1997 50.3521 35.9595 53.8851 32.3335L56.75 35.125L59.6149 37.9165C56.8146 40.7905 54.5873 44.1753 52.9392 48.1084L49.25 46.5625ZM56.75 35.125L53.8851 32.3335C57.4046 28.7214 61.5036 25.8531 66.1546 23.7348L67.8125 27.375L69.4704 31.0152C65.7048 32.7303 62.4287 35.0286 59.6149 37.9165L56.75 35.125ZM67.8125 27.375L66.1846 23.7212C70.9304 21.6068 76.0089 20.5625 81.375 20.5625V24.5625V28.5625C77.0745 28.5625 73.1113 29.3932 69.4404 31.0288L67.8125 27.375ZM81.375 24.5625V20.5625C84.6189 20.5625 87.7723 20.9569 90.8246 21.7552L89.8125 25.625L88.8004 29.4948C86.4361 28.8765 83.9645 28.5625 81.375 28.5625V24.5625ZM89.8125 25.625L90.8246 21.7552C93.8348 22.5424 96.6795 23.6595 99.3486 25.1111L97.4375 28.625L95.5264 32.1389C93.4455 31.0072 91.2069 30.1242 88.8004 29.4948L89.8125 25.625ZM97.4375 28.625L99.323 25.0973C102.024 26.5407 104.517 28.2885 106.798 30.3363L104.125 33.3125L101.452 36.2887C99.6497 34.6699 97.6847 33.2926 95.552 32.1527L97.4375 28.625ZM104.125 33.3125L106.768 30.3096C109.085 32.3492 111.13 34.6257 112.896 37.1355L109.625 39.4375L106.354 41.7395C104.953 39.7493 103.331 37.9424 101.482 36.3154L104.125 33.3125ZM109.625 39.4375L107.337 36.1568L117.462 29.0943L119.75 32.375L122.038 35.6557L111.913 42.7182L109.625 39.4375Z" fill="white" mask="url(#path-6-outside-3_24_16)"/>
<path d="M201.5 28.5L201 33L201.5 33.5L206.5 31.5" stroke="#0D0D57"/>
<path d="M208.5 40C208.5 40 202.5 42 200 44.5C197.5 47 196.5 48.5 195 51.5C193.5 54.5 193.5 55.5 193 58C192.5 60.5 192 67.5 192 67.5C192 67.5 191 75 192 78C193 81 197.5 84.5 198.5 85C199.5 85.5 207 85.5 208.5 85C210 84.5 214.849 83.7868 217.5 81C220.352 78.0021 222.367 73.3431 221 71C219.633 68.6569 218.367 67.8431 217 65.5C217 65.5 216.525 59.0378 217.5 60.5C219.5 63.5 225.51 65.8644 231 65C233.938 64.5374 235.565 63.7071 238 62C240.948 59.9334 242.205 58.1212 244 55C244.575 54 247 49 247 46.5C247 44.3879 246 43.5 244 42C242 40.5 233 40 233 40C228.5 39 225 39 221 39C219.419 39 208.5 40 208.5 40Z" fill="#0D0D57" stroke="#0D0D57" stroke-width="2"/>
<path d="M190.413 31.3194C190.413 31.3194 192.434 37.3123 191.947 40.814C191.459 44.3157 190.866 46.018 189.376 49.0233C187.887 52.0286 187.089 52.6317 185.396 54.5377C183.703 56.4437 178.42 61.0628 178.42 61.0628C178.42 61.0628 173.039 66.3822 170.042 67.393C167.046 68.4038 161.541 66.9236 160.539 66.4273C159.537 65.931 155.015 59.9472 154.51 58.4489C154.005 56.9507 151.65 52.652 152.275 48.8569C152.948 44.7745 155.45 40.3579 158.144 40.0357C160.837 39.7136 162.25 40.2334 164.943 39.9113C164.943 39.9113 170.385 36.3941 168.631 36.4979C165.032 36.711 159.522 33.3411 156.902 28.4401C155.5 25.8172 155.182 24.0189 155.075 21.0467C154.947 17.4485 155.635 15.3532 157.043 12.0395C157.494 10.9779 160.021 6.02876 162.016 4.52155C163.701 3.24822 165.012 3.51065 167.415 4.20209C169.817 4.89352 175.642 11.7726 175.642 11.7726C179.153 14.76 181.263 17.5524 183.674 20.7436C184.628 22.0051 190.413 31.3194 190.413 31.3194Z" fill="#0D0D57" stroke="#0D0D57" stroke-width="2"/>
</svg>
